<?xml version="1.0" standalone="no"?>
<!DOCTYPE svg PUBLIC "-//W3C//DTD SVG 20010904//EN"
 "http://www.w3.org/TR/2001/REC-SVG-20010904/DTD/svg10.dtd">
<svg version="1.0" xmlns="http://www.w3.org/2000/svg"
 width="800.000000pt" height="800.000000pt" viewBox="0 0 800.000000 800.000000"
 preserveAspectRatio="xMidYMid meet">
<metadata>
Created by potrace 1.11, written by Peter Selinger 2001-2013
</metadata>
<g transform="translate(0.000000,800.000000) scale(0.100000,-0.100000)"
fill="#000000" stroke="none">
<path d="M0 6879 l0 -801 30 4 c17 3 30 1 30 -3 0 -4 14 -4 30 1 17 5 30 5 30
0 0 -5 13 -5 30 0 17 5 30 5 30 0 0 -5 13 -5 30 0 17 5 30 5 30 0 0 -5 13 -5
30 0 17 5 30 5 30 0 0 -5 13 -5 30 0 17 5 30 5 30 0 0 -5 13 -5 30 0 17 5 30
5 30 0 0 -5 13 -5 30 0 17 5 30 5 30 0 0 -5 13 -5 30 0 17 5 30 5 30 0 0 -5
13 -5 30 0 17 5 30 5 30 0 0 -5 13 -5 30 0 17 5 30 5 30 0 0 -5 13 -5 29 0 15
4 34 4 42 0 7 -5 21 -4 30 1 11 6 20 5 24 -1 3 -5 15 -6 29 0 12 4 29 4 36 0
8 -5 22 -4 31 1 11 6 20 5 24 -1 3 -5 15 -6 28 -1 12 5 34 5 49 0 16 -4 28 -4
28 1 0 5 13 5 30 0 17 -5 30 -5 30 0 0 5 12 5 28 1 15 -5 37 -5 49 0 13 5 25
4 28 -1 4 -6 13 -7 24 -1 9 5 23 6 29 2 7 -4 35 -4 62 -1 28 4 50 3 50 -1 0
-4 14 -4 30 1 17 5 30 5 30 0 0 -5 13 -5 30 0 17 5 30 5 30 0 0 -5 13 -5 30 0
17 5 30 5 30 0 0 -5 13 -5 30 0 17 5 30 5 30 0 0 -5 13 -5 30 0 17 5 30 5 30
0 0 -5 13 -5 30 0 17 5 30 5 30 0 0 -5 13 -5 30 0 17 5 30 5 30 0 0 -5 13 -5
30 0 17 5 30 5 30 0 0 -5 13 -5 30 0 17 5 30 5 30 0 0 -5 13 -5 30 0 17 5 30
5 30 0 0 -5 13 -5 29 0 15 4 34 4 42 0 7 -5 21 -4 30 1 11 6 20 5 24 -1 3 -5
15 -6 29 0 12 4 29 4 36 0 8 -5 22 -4 31 1 11 6 20 5 24 -1 3 -5 15 -6 28 -1
12 5 34 5 49 0 16 -4 28 -4 28 1 0 5 13 5 30 0 17 -5 30 -5 30 0 0 5 12 5 28
1 15 -5 37 -5 49 0 13 5 25 4 28 -1 4 -6 13 -7 24 -1 9 5 23 6 30 2 7 -5 30
-5 51 -1 21 4 44 4 51 -1 7 -4 21 -3 30 2 11 6 20 5 24 -1 3 -5 15 -6 28 -1
12 5 34 5 49 0 16 -4 28 -4 28 1 0 5 13 5 30 0 17 -5 30 -5 30 0 0 5 12 5 28
1 15 -5 37 -5 49 0 13 5 25 4 28 -1 3 -6 15 -6 30 0 15 6 27 6 30 0 3 -6 15
-6 30 0 15 6 27 6 30 0 4 -6 13 -7 24 -1 9 5 23 6 30 1 8 -4 27 -4 42 0 16 5
29 5 29 0 0 -5 13 -5 30 0 17 5 30 5 30 0 0 -5 13 -5 30 0 17 5 30 5 30 0 0
-5 13 -5 30 0 17 5 30 5 30 0 0 -5 13 -5 30 0 17 5 30 5 30 0 0 -5 13 -5 30 0
17 5 30 5 30 0 0 -5 13 -5 30 0 17 5 30 5 30 0 0 -5 13 -5 30 0 17 5 30 5 30
0 0 -5 13 -5 30 0 17 5 30 5 30 0 0 -5 13 -5 30 0 17 5 30 5 30 0 0 -5 13 -5
30 0 17 5 30 6 30 2 0 -4 23 -7 50 -7 28 0 50 3 50 7 0 4 11 3 25 -2 15 -6 27
-6 30 0 3 5 15 6 28 1 12 -5 32 -5 44 0 13 5 25 4 28 -2 4 -6 13 -6 23 0 9 5
26 5 39 0 13 -5 23 -5 23 0 0 5 18 5 40 1 22 -4 40 -4 40 1 0 5 11 4 25 -1 15
-6 27 -6 30 0 3 5 15 6 28 1 12 -5 32 -5 44 0 13 5 25 4 28 -2 4 -6 13 -6 23
0 9 5 26 5 39 0 13 -5 23 -5 23 -1 0 4 23 7 50 7 28 0 50 -3 50 -7 0 -4 13 -3
30 2 17 5 30 5 30 0 0 -5 13 -5 29 0 15 4 34 4 42 0 7 -5 20 -5 29 0 9 5 22 5
30 0 8 -5 21 -5 30 0 9 5 22 5 30 0 8 -5 21 -5 30 0 9 5 22 5 30 0 8 -5 21 -5
30 0 9 5 22 5 30 0 8 -5 21 -5 30 0 9 5 22 5 30 0 8 -5 21 -5 30 0 9 5 22 5
30 0 8 -5 21 -5 30 0 9 5 22 5 30 0 8 -5 21 -5 30 0 9 5 22 5 30 0 8 -5 21 -5
30 0 9 5 22 5 30 0 8 -5 21 -5 30 0 9 5 22 5 30 0 8 -5 21 -5 30 0 9 5 22 5
30 0 8 -5 21 -5 30 0 9 5 22 5 30 0 8 -5 21 -5 30 0 9 5 22 5 30 0 8 -5 21 -5
30 0 9 5 22 5 30 0 8 -5 21 -5 31 0 9 5 19 6 23 3 8 -8 112 -7 126 2 5 3 10 3
10 -2 0 -4 23 -8 50 -8 28 0 50 3 50 7 0 4 11 3 25 -2 15 -6 27 -6 30 0 3 5
15 6 28 1 12 -5 32 -5 44 0 13 5 25 4 28 -2 4 -6 13 -6 23 0 9 5 26 5 39 0 13
-5 23 -5 23 0 0 5 18 5 40 1 22 -4 40 -4 40 1 0 5 11 4 25 -1 15 -6 27 -6 30
0 3 5 15 6 28 1 12 -5 32 -5 44 0 13 5 25 4 28 -2 4 -6 13 -6 23 0 9 5 26 5
39 0 13 -5 23 -5 23 -1 0 8 89 7 97 -2 3 -3 14 -1 24 4 11 7 20 7 24 0 3 -5
15 -6 28 -1 12 5 34 5 49 0 16 -4 28 -4 28 1 0 5 13 5 30 0 17 -5 30 -5 30 0
0 5 12 5 28 1 15 -5 37 -5 49 0 13 5 25 4 28 -1 3 -6 15 -6 30 0 15 6 27 6 30
0 3 -6 15 -6 30 0 15 6 27 6 30 0 4 -6 13 -7 24 -1 9 5 23 6 30 1 8 -4 27 -4
42 0 16 5 29 5 29 0 0 -5 13 -5 30 0 17 5 30 5 30 0 0 -5 13 -5 30 0 17 5 30
5 30 0 0 -5 13 -5 30 0 17 5 30 5 30 0 0 -5 13 -5 30 0 17 5 30 5 30 0 0 -5
13 -5 30 0 17 5 30 5 30 0 0 -5 13 -5 30 0 17 5 30 5 30 0 0 -5 13 -5 30 0 17
5 30 5 30 0 0 -5 13 -5 30 0 17 5 30 5 30 0 0 -5 13 -5 30 0 17 5 30 5 30 0 0
-5 13 -5 30 0 17 5 30 5 30 1 0 -4 27 -4 60 -1 33 3 60 3 60 -1 0 -4 13 -4 30
1 16 5 30 6 30 2 0 -8 79 -7 87 2 3 3 14 1 24 -4 11 -7 20 -7 24 0 3 6 15 6
29 0 13 -5 27 -6 30 -3 3 4 6 366 6 805 l0 798 -4000 0 -4000 0 0 -801z"/>
<path d="M13 4803 c-10 -4 -13 -174 -13 -805 l0 -800 24 4 c14 3 30 1 37 -3 7
-4 20 -4 29 1 9 5 22 5 30 0 7 -4 24 -4 36 0 14 6 26 5 29 0 3 -5 18 -5 35 0
17 5 30 5 30 0 0 -5 13 -5 30 0 17 5 30 5 30 0 0 -5 13 -5 30 0 17 5 30 5 30
0 0 -5 13 -5 30 0 17 5 30 6 30 2 0 -8 68 -7 76 1 3 3 17 2 30 -3 14 -6 26 -6
29 0 3 5 16 6 28 1 22 -8 69 -6 93 3 7 3 16 1 19 -4 3 -6 15 -6 30 0 14 5 27
5 30 0 3 -5 18 -5 35 0 16 5 32 5 35 0 3 -5 19 -5 35 0 17 5 30 5 30 0 0 -5
12 -5 28 -1 28 7 75 6 99 -3 7 -3 13 -1 13 4 0 5 13 5 30 0 17 -5 30 -5 30 0
0 5 13 5 30 0 17 -5 30 -5 30 0 0 5 13 5 30 0 17 -5 30 -5 30 0 0 5 13 5 30 0
17 -5 30 -5 30 0 0 5 13 5 30 0 17 -5 30 -5 30 0 0 5 13 5 30 0 17 -5 30 -5
30 0 0 5 13 5 30 0 17 -5 30 -5 30 0 0 5 13 5 30 0 17 -5 30 -5 30 0 0 5 12 5
28 1 28 -7 74 -6 98 3 7 3 16 1 19 -4 3 -6 15 -6 30 0 14 5 27 5 30 0 3 -5 18
-5 35 0 16 5 32 5 35 0 3 -5 19 -5 35 0 19 5 30 5 30 -1 0 -6 5 -7 10 -4 14 9
108 10 116 2 4 -3 14 -2 23 3 10 5 23 5 31 0 7 -4 24 -4 36 0 14 6 26 5 29 0
3 -5 18 -5 35 0 17 5 30 5 30 0 0 -5 13 -5 30 0 17 5 30 5 30 0 0 -5 13 -5 30
0 17 5 30 5 30 0 0 -5 13 -5 30 0 16 5 30 6 30 2 0 -8 68 -7 76 1 3 3 17 2 30
-3 14 -6 26 -6 29 0 3 5 16 6 28 1 22 -8 69 -6 93 3 7 3 16 1 19 -4 3 -6 15
-6 30 0 14 5 27 5 30 0 3 -5 18 -5 35 0 16 5 32 5 35 0 3 -5 19 -5 35 0 17 5
30 5 30 0 0 -5 12 -5 27 -1 29 7 76 6 100 -3 7 -3 13 -1 13 4 0 5 13 5 30 0
17 -5 30 -5 30 0 0 5 13 5 30 0 17 -5 30 -5 30 0 0 5 13 5 30 0 17 -5 30 -5
30 0 0 5 13 5 30 0 17 -5 30 -5 30 0 0 5 13 5 30 0 17 -5 30 -5 30 0 0 5 13 5
30 0 17 -5 30 -5 30 0 0 5 13 5 30 0 17 -5 30 -5 30 0 0 5 13 5 30 0 17 -5 30
-5 30 0 0 5 12 5 28 1 28 -7 74 -6 98 3 7 3 16 1 19 -4 3 -6 15 -6 30 0 14 5
27 5 30 0 3 -5 18 -5 35 0 16 5 32 5 35 0 3 -5 19 -5 35 0 19 5 30 5 30 -1 0
-6 5 -7 10 -4 14 9 108 10 116 2 4 -3 14 -2 23 3 10 5 23 5 31 0 7 -4 24 -4
36 0 14 6 26 5 29 0 3 -5 18 -5 35 0 17 5 30 5 30 0 0 -5 13 -5 30 0 17 5 30
5 30 0 0 -5 13 -5 30 0 17 5 30 5 30 0 0 -5 13 -5 30 0 16 5 30 6 30 2 0 -8
68 -7 76 1 3 3 17 2 30 -3 14 -6 26 -6 29 0 3 5 16 6 28 1 22 -8 69 -6 93 3 7
3 16 1 19 -4 3 -6 15 -6 30 0 14 5 27 5 30 0 3 -5 18 -5 35 0 16 5 32 5 35 0
3 -5 19 -5 35 0 17 5 30 5 30 0 0 -5 12 -5 28 -1 28 7 75 6 99 -3 7 -3 13 -1
13 4 0 5 13 5 30 0 17 -5 30 -5 30 0 0 5 13 5 30 0 17 -5 30 -5 30 0 0 5 13 5
30 0 17 -5 30 -5 30 0 0 5 12 5 28 1 15 -5 37 -5 49 0 13 5 25 4 28 -1 3 -6
15 -6 30 0 14 5 27 5 30 0 3 -5 18 -5 35 0 17 5 30 5 30 0 0 -5 13 -5 30 0 18
5 30 5 30 0 0 -6 10 -6 25 0 15 6 27 6 30 0 3 -5 12 -7 19 -4 15 6 27 74 13
74 -4 0 -6 4 -2 9 7 12 11 139 4 145 -3 3 -3 29 1 58 3 29 3 70 -1 90 -3 21
-3 40 -1 43 7 7 4 123 -3 135 -3 5 -1 11 4 14 4 3 5 23 2 43 -4 21 -4 53 0 71
3 18 3 35 -2 38 -5 3 -7 9 -4 14 7 12 10 128 4 135 -3 2 -3 28 1 57 3 29 3 70
-1 90 -3 21 -3 40 -1 43 7 7 4 123 -3 135 -3 5 -1 11 4 14 4 3 5 23 2 43 -4
21 -4 53 0 71 3 18 3 35 -2 37 -4 3 -6 11 -3 18 7 18 10 137 4 137 -3 0 -4 21
-1 48 2 26 0 44 -4 40 -4 -4 -17 -3 -29 2 -13 4 -29 5 -36 0 -7 -5 -24 -4 -36
0 -14 6 -26 5 -29 0 -3 -5 -18 -5 -35 0 -17 5 -30 5 -30 0 0 -5 -13 -5 -30 0
-17 5 -30 5 -30 0 0 -5 -13 -5 -30 0 -17 5 -30 5 -30 0 0 -5 -13 -5 -30 0 -17
5 -30 5 -30 0 0 -5 -13 -5 -30 0 -17 5 -30 5 -30 0 0 -5 -13 -5 -30 0 -17 5
-30 5 -30 0 0 -5 -13 -5 -30 0 -17 5 -30 5 -30 0 0 -5 -13 -5 -30 0 -17 5 -30
5 -30 0 0 -5 -13 -5 -30 0 -17 5 -30 5 -30 0 0 -5 -13 -5 -30 0 -17 5 -30 5
-30 0 0 -5 -13 -5 -29 0 -15 4 -34 4 -42 0 -7 -5 -20 -5 -29 0 -9 5 -22 5 -30
0 -8 -5 -19 -6 -24 -3 -12 8 -102 7 -115 -1 -5 -4 -12 -2 -16 3 -3 7 -15 7
-30 1 -14 -5 -27 -5 -30 0 -3 5 -18 5 -35 0 -16 -5 -32 -5 -35 0 -3 5 -19 5
-35 0 -17 -5 -30 -5 -30 0 0 5 -13 5 -30 0 -17 -5 -30 -5 -30 0 0 5 -13 5 -30
0 -17 -5 -32 -5 -35 0 -3 5 -16 5 -30 0 -14 -5 -27 -5 -30 0 -3 5 -18 5 -35 0
-16 -5 -32 -5 -35 0 -3 5 -19 5 -35 0 -17 -5 -30 -5 -30 0 0 5 -6 7 -13 4 -25
-9 -72 -11 -94 -3 -12 5 -25 4 -28 -1 -3 -6 -15 -6 -29 0 -13 5 -27 6 -30 3
-8 -8 -76 -9 -76 -1 0 4 -14 3 -30 -2 -17 -5 -30 -5 -30 0 0 5 -13 5 -30 0
-16 -5 -30 -6 -30 -2 0 4 -29 7 -65 7 -36 0 -65 -3 -65 -7 0 -4 -13 -3 -30 2
-17 5 -30 5 -30 0 0 -5 -13 -5 -29 0 -15 4 -34 4 -42 0 -7 -5 -20 -5 -29 0 -9
5 -22 5 -30 0 -8 -5 -21 -5 -30 0 -9 5 -22 5 -30 0 -8 -5 -21 -5 -30 0 -9 5
-22 5 -30 0 -8 -5 -21 -5 -30 0 -9 5 -22 5 -30 0 -8 -5 -21 -5 -30 0 -9 5 -22
5 -30 0 -8 -5 -21 -5 -30 0 -9 5 -22 5 -30 0 -8 -5 -21 -5 -30 0 -9 5 -22 5
-30 0 -8 -5 -21 -5 -30 0 -9 5 -22 5 -30 0 -8 -5 -21 -5 -30 0 -9 5 -22 5 -30
0 -8 -5 -21 -5 -30 0 -8 4 -22 4 -31 0 -8 -5 -20 -5 -27 -1 -7 4 -35 5 -62 1
-27 -4 -55 -3 -62 1 -6 4 -19 4 -28 -1 -9 -5 -22 -5 -30 0 -8 5 -21 5 -30 0
-9 -5 -22 -5 -30 0 -8 5 -21 5 -30 0 -9 -5 -22 -5 -30 0 -8 5 -21 5 -30 0 -9
-5 -22 -5 -30 0 -8 5 -21 5 -30 0 -9 -5 -22 -5 -30 0 -8 5 -21 5 -30 0 -9 -5
-22 -5 -30 0 -8 5 -21 5 -30 0 -9 -5 -22 -5 -30 0 -8 5 -21 5 -30 0 -9 -5 -22
-5 -30 0 -8 5 -21 5 -30 0 -9 -5 -22 -5 -30 0 -8 5 -21 5 -30 0 -8 -4 -22 -4
-31 0 -8 5 -21 5 -29 0 -7 -4 -24 -4 -36 0 -14 6 -26 5 -29 0 -3 -6 -15 -6
-30 0 -15 6 -27 6 -30 0 -3 -6 -15 -6 -30 0 -15 6 -27 6 -30 0 -3 -6 -15 -6
-29 0 -13 5 -27 6 -30 3 -8 -8 -76 -9 -76 -1 0 4 -13 3 -30 -2 -16 -5 -30 -6
-30 -2 0 8 -68 7 -76 -1 -3 -3 -17 -2 -30 3 -14 6 -26 6 -29 0 -3 -5 -15 -6
-27 -1 -12 4 -38 5 -59 1 -21 -4 -43 -4 -50 1 -7 4 -20 4 -29 -1 -9 -5 -22 -5
-30 0 -8 5 -21 5 -30 0 -9 -5 -22 -5 -30 0 -8 5 -21 5 -30 0 -9 -5 -22 -5 -30
0 -8 5 -21 5 -30 0 -8 -4 -22 -4 -31 0 -8 5 -21 5 -29 0 -8 -5 -21 -5 -30 0
-9 5 -22 5 -30 0 -8 -5 -21 -5 -30 0 -9 5 -22 5 -30 0 -8 -5 -21 -5 -30 0 -9
5 -22 5 -30 0 -8 -5 -21 -5 -30 0 -9 5 -22 5 -30 0 -8 -5 -21 -5 -30 0 -9 5
-22 5 -30 0 -8 -5 -21 -5 -30 0 -9 5 -22 5 -30 0 -7 -4 -24 -4 -36 0 -14 6
-26 5 -29 0 -3 -6 -15 -6 -30 0 -15 6 -27 6 -30 0 -3 -6 -15 -6 -30 0 -15 6
-27 6 -30 0 -3 -6 -15 -6 -29 0 -13 5 -27 6 -30 3 -8 -8 -76 -9 -76 -1 0 4
-13 3 -30 -2 -16 -5 -30 -6 -30 -2 0 8 -68 7 -76 -1 -3 -3 -17 -2 -30 3 -14 6
-26 6 -29 0 -3 -5 -15 -6 -28 -1 -12 4 -28 6 -34 4z"/>
<path d="M18 1923 c-17 -4 -18 -51 -18 -804 l0 -799 1598 0 c879 0 1601 3
1604 6 4 3 3 18 -2 33 -4 16 -4 34 0 41 5 7 5 23 0 34 -4 11 -4 33 1 48 4 16
4 28 -1 28 -4 0 -5 15 -1 33 4 17 4 47 0 65 -3 18 -3 35 2 37 4 3 4 16 0 28
-5 12 -5 34 0 49 4 16 4 28 -1 28 -4 0 -5 15 -1 33 4 17 4 47 0 65 -3 18 -3
35 2 37 4 3 4 16 0 28 -5 12 -5 34 0 49 4 16 4 28 -1 28 -4 0 -5 15 -1 33 5
18 5 41 1 52 -4 11 -4 30 1 41 4 12 5 25 2 28 -8 8 -9 76 -1 76 4 0 3 13 -2
30 -5 17 -5 32 0 35 5 3 6 16 1 28 -5 12 -5 31 -1 42 4 11 5 24 2 29 -3 6 -5
28 -4 50 4 92 3 126 -1 133 -2 4 -1 17 3 28 4 11 4 32 0 46 -4 15 -4 32 0 39
5 7 5 23 0 34 -4 12 -4 31 1 43 4 12 4 25 -1 28 -5 3 -5 18 0 35 5 17 5 30 1
30 -4 0 -6 13 -3 29 3 22 -1 32 -16 40 -14 7 -23 8 -27 1 -4 -6 -13 -7 -23 -1
-10 5 -24 6 -33 1 -8 -5 -21 -5 -29 0 -7 4 -24 4 -36 0 -14 -6 -26 -5 -29 1
-4 6 -13 6 -23 0 -9 -5 -26 -5 -39 0 -13 5 -23 5 -23 1 0 -4 -21 -6 -47 -4
-27 1 -54 3 -60 2 -7 0 -20 0 -28 0 -8 0 -22 0 -30 0 -8 0 -22 0 -30 0 -8 0
-22 0 -30 0 -8 0 -22 0 -30 0 -8 0 -22 0 -30 0 -8 0 -22 0 -30 0 -8 0 -22 0
-30 0 -8 0 -22 0 -30 0 -8 0 -22 0 -30 0 -8 0 -22 0 -30 0 -8 0 -22 0 -30 0
-8 0 -22 0 -30 0 -8 0 -22 0 -30 0 -8 0 -22 0 -30 0 -8 0 -22 0 -30 0 -8 0
-21 0 -27 0 -7 -1 -34 1 -61 2 -26 2 -47 0 -47 -4 0 -4 -11 -3 -25 2 -15 6
-27 6 -30 0 -3 -5 -15 -6 -28 -1 -12 5 -32 5 -44 0 -13 -5 -25 -4 -28 2 -4 6
-13 6 -23 0 -9 -5 -26 -5 -39 0 -13 5 -23 5 -23 1 0 -8 -89 -7 -97 2 -3 3 -14
1 -24 -4 -11 -7 -20 -7 -24 0 -3 5 -15 6 -28 1 -12 -5 -34 -5 -49 0 -16 4 -28
4 -28 -1 0 -5 -13 -5 -30 0 -17 5 -30 5 -30 0 0 -5 -13 -5 -30 0 -17 5 -30 5
-30 0 0 -5 -13 -5 -30 0 -18 5 -30 5 -30 0 0 -6 -10 -6 -24 0 -13 5 -27 6 -30
3 -8 -8 -76 -9 -76 -1 0 4 -13 3 -30 -2 -17 -5 -30 -5 -30 -1 0 4 -27 4 -60 1
-33 -3 -60 -3 -60 1 0 4 -13 4 -30 -1 -17 -5 -30 -6 -30 -2 0 8 -68 7 -76 -1
-3 -3 -17 -2 -30 3 -14 6 -24 6 -24 0 0 -5 -12 -5 -30 0 -17 5 -30 5 -30 0 0
-5 -13 -5 -30 0 -17 5 -30 5 -30 0 0 -5 -13 -5 -30 0 -17 5 -30 5 -30 0 0 -5
-12 -5 -28 -1 -15 5 -37 5 -49 0 -13 -5 -25 -4 -28 1 -4 6 -13 7 -24 1 -9 -5
-23 -6 -29 -2 -7 4 -35 4 -62 1 -28 -4 -50 -3 -50 1 0 4 -14 4 -30 -1 -16 -5
-30 -6 -30 -2 0 8 -68 7 -76 -1 -3 -3 -17 -2 -30 3 -14 6 -24 6 -24 0 0 -5
-12 -5 -30 0 -17 5 -30 5 -30 0 0 -5 -13 -5 -30 0 -17 5 -30 5 -30 0 0 -5 -13
-5 -30 0 -17 5 -30 5 -30 0 0 -5 -12 -5 -28 -1 -15 5 -37 5 -49 0 -13 -5 -25
-4 -28 1 -4 6 -13 7 -23 1 -10 -5 -24 -6 -32 -2 -8 4 -23 6 -32 4z"/>
</g>
</svg>
